<svg width="120" height="54" viewBox="0 0 120 54" fill="none" xmlns="http://www.w3.org/2000/svg">
<path fill-rule="evenodd" clip-rule="evenodd" d="M20.5 13.0209C17.2957 13.0209 14.6981 15.6185 14.6981 18.8228V27.5736H5.74451C2.5719 27.5736 0 30.1455 0 33.3181C0 36.4907 2.5719 39.0626 5.74451 39.0626H14.6981H26.3019V27.5736V18.8228C26.3019 15.6185 23.7043 13.0209 20.5 13.0209Z" fill="#FD96A9"/>
<path fill-rule="evenodd" clip-rule="evenodd" d="M20.5 53.6154C23.7043 53.6154 26.3019 51.0178 26.3019 47.8135L26.3019 39.0626L35.2555 39.0626C38.4281 39.0626 41 36.4907 41 33.3181C41 30.1455 38.4281 27.5736 35.2555 27.5736L26.3019 27.5736L14.6981 27.5736L14.6981 39.0626L14.6981 47.8135C14.6981 51.0178 17.2957 53.6154 20.5 53.6154Z" fill="#498467"/>
<rect x="26.3018" width="11.489" height="11.6038" rx="5.74451" transform="rotate(90 26.3018 0)" fill="#FD96A9"/>
<path d="M55.2438 34.8077L49.3456 18.6797H52.5021L57.064 31.7895L61.649 18.6797H64.7594L58.8611 34.8077H55.2438ZM68.1974 21.6058C67.6598 21.6058 67.2143 21.4445 66.861 21.1219C66.5231 20.7994 66.3542 20.3923 66.3542 19.9008C66.3542 19.4093 66.5231 19.0099 66.861 18.7027C67.2143 18.3802 67.6598 18.2189 68.1974 18.2189C68.735 18.2189 69.1727 18.3802 69.5106 18.7027C69.8639 19.0099 70.0406 19.4093 70.0406 19.9008C70.0406 20.3923 69.8639 20.7994 69.5106 21.1219C69.1727 21.4445 68.735 21.6058 68.1974 21.6058ZM66.7228 34.8077V23.3799H69.6719V34.8077H66.7228ZM77.8419 34.8077C76.6439 34.8077 75.6839 34.5159 74.9619 33.9322C74.24 33.3485 73.8791 32.3117 73.8791 30.8218V25.8451H71.9207V23.3799H73.8791L74.2247 20.3155H76.8282V23.3799H79.9155V25.8451H76.8282V30.8448C76.8282 31.3978 76.9434 31.7818 77.1738 31.9968C77.4195 32.1965 77.8343 32.2963 78.4179 32.2963H79.8464V34.8077H77.8419ZM86.3874 35.0842C85.4044 35.0842 84.598 34.9306 83.9682 34.6234C83.3385 34.3008 82.87 33.8784 82.5628 33.3562C82.2556 32.8339 82.102 32.2579 82.102 31.6282C82.102 30.5683 82.5167 29.7082 83.3462 29.0477C84.1756 28.3872 85.4198 28.057 87.0786 28.057H89.9817V27.7805C89.9817 26.9971 89.759 26.4211 89.3135 26.0525C88.8681 25.6839 88.3151 25.4995 87.6546 25.4995C87.0556 25.4995 86.5334 25.6455 86.0879 25.9373C85.6425 26.2138 85.366 26.6285 85.2585 27.1815H82.3785C82.4553 26.352 82.7318 25.6301 83.2079 25.0157C83.6994 24.4013 84.3292 23.9328 85.0972 23.6103C85.8652 23.2723 86.7254 23.1034 87.6777 23.1034C89.3058 23.1034 90.5884 23.5104 91.5254 24.3245C92.4623 25.1386 92.9308 26.2906 92.9308 27.7805V34.8077H90.4194L90.143 32.9645C89.805 33.5789 89.3289 34.0858 88.7145 34.4851C88.1154 34.8845 87.3398 35.0842 86.3874 35.0842ZM87.0556 32.7802C87.9004 32.7802 88.5532 32.5037 89.014 31.9507C89.4902 31.3978 89.7897 30.7143 89.9126 29.9002H87.4012C86.6178 29.9002 86.0572 30.0461 85.7193 30.3379C85.3814 30.6144 85.2124 30.96 85.2124 31.3747C85.2124 31.8202 85.3814 32.1658 85.7193 32.4115C86.0572 32.6573 86.5026 32.7802 87.0556 32.7802ZM95.7451 34.8077V18.2189H98.6942V34.8077H95.7451ZM103.297 21.6058C102.76 21.6058 102.314 21.4445 101.961 21.1219C101.623 20.7994 101.454 20.3923 101.454 19.9008C101.454 19.4093 101.623 19.0099 101.961 18.7027C102.314 18.3802 102.76 18.2189 103.297 18.2189C103.835 18.2189 104.273 18.3802 104.611 18.7027C104.964 19.0099 105.141 19.4093 105.141 19.9008C105.141 20.3923 104.964 20.7994 104.611 21.1219C104.273 21.4445 103.835 21.6058 103.297 21.6058ZM101.823 34.8077V23.3799H104.772V34.8077H101.823ZM111.79 35.0842C110.807 35.0842 110.001 34.9306 109.371 34.6234C108.741 34.3008 108.273 33.8784 107.965 33.3562C107.658 32.8339 107.505 32.2579 107.505 31.6282C107.505 30.5683 107.919 29.7082 108.749 29.0477C109.578 28.3872 110.822 28.057 112.481 28.057H115.384V27.7805C115.384 26.9971 115.161 26.4211 114.716 26.0525C114.271 25.6839 113.718 25.4995 113.057 25.4995C112.458 25.4995 111.936 25.6455 111.49 25.9373C111.045 26.2138 110.769 26.6285 110.661 27.1815H107.781C107.858 26.352 108.134 25.6301 108.61 25.0157C109.102 24.4013 109.732 23.9328 110.5 23.6103C111.268 23.2723 112.128 23.1034 113.08 23.1034C114.708 23.1034 115.991 23.5104 116.928 24.3245C117.865 25.1386 118.333 26.2906 118.333 27.7805V34.8077H115.822L115.545 32.9645C115.208 33.5789 114.731 34.0858 114.117 34.4851C113.518 34.8845 112.742 35.0842 111.79 35.0842ZM112.458 32.7802C113.303 32.7802 113.956 32.5037 114.417 31.9507C114.893 31.3978 115.192 30.7143 115.315 29.9002H112.804C112.02 29.9002 111.46 30.0461 111.122 30.3379C110.784 30.6144 110.615 30.96 110.615 31.3747C110.615 31.8202 110.784 32.1658 111.122 32.4115C111.46 32.6573 111.905 32.7802 112.458 32.7802Z" fill="#011627"/>
</svg>
