<svg width="41" height="54" viewBox="0 0 41 54" fill="none" xmlns="http://www.w3.org/2000/svg">
<path fill-rule="evenodd" clip-rule="evenodd" d="M20.5 13.021C17.2957 13.021 14.6981 15.6186 14.6981 18.8229V27.5737H5.74451C2.5719 27.5737 0 30.1456 0 33.3182C0 36.4909 2.5719 39.0628 5.74451 39.0628H14.6981H26.3019V27.5737V18.8229C26.3019 15.6186 23.7043 13.021 20.5 13.021Z" fill="#EF4565"/>
<path fill-rule="evenodd" clip-rule="evenodd" d="M20.5 53.6155C23.7043 53.6155 26.3019 51.0179 26.3019 47.8136L26.3019 39.0627L35.2555 39.0627C38.4281 39.0627 41 36.4908 41 33.3182C41 30.1456 38.4281 27.5737 35.2555 27.5737L26.3019 27.5737L14.6981 27.5737L14.6981 39.0627L14.6981 47.8136C14.6981 51.0179 17.2957 53.6155 20.5 53.6155Z" fill="#3DA9FC"/>
<rect x="26.3019" width="11.489" height="11.6038" rx="5.74451" transform="rotate(90 26.3019 0)" fill="#EF4565"/>
</svg>
